<svg xmlns="http://www.w3.org/2000/svg" viewBox="0 0 320 1400" width="320" height="1400">
<g color="#4C7EA8">
<line x1="0" y1="0" x2="320" y2="0" stroke="currentColor" stroke-width="1" opacity="0.3"/>
<line x1="0" y1="140" x2="320" y2="140" stroke="currentColor" stroke-width="1" opacity="0.3"/>
<line x1="0" y1="280" x2="320" y2="280" stroke="currentColor" stroke-width="1" opacity="0.3"/>
<line x1="0" y1="420" x2="320" y2="420" stroke="currentColor" stroke-width="1" opacity="0.3"/>
<line x1="0" y1="560" x2="320" y2="560" stroke="currentColor" stroke-width="1" opacity="0.3"/>
<line x1="0" y1="700" x2="320" y2="700" stroke="currentColor" stroke-width="1" opacity="0.3"/>
<line x1="0" y1="840" x2="320" y2="840" stroke="currentColor" stroke-width="1" opacity="0.3"/>
<line x1="0" y1="980" x2="320" y2="980" stroke="currentColor" stroke-width="1" opacity="0.3"/>
<line x1="0" y1="1120" x2="320" y2="1120" stroke="currentColor" stroke-width="1" opacity="0.3"/>
<line x1="0" y1="1260" x2="320" y2="1260" stroke="currentColor" stroke-width="1" opacity="0.3"/>
</g>
<g color="#4C7EA8" fill="none">
<polyline points="24.0,1298.0 33.4,1289.7 42.8,1203.4 52.1,1197.1 61.5,1144.8 70.9,1141.4 80.3,1055.1 89.7,1044.8 99.0,962.5 108.4,970.2 117.8,906.9 127.2,898.6 136.6,817.3 145.9,801.0 155.3,744.7 164.7,737.3 174.1,654.0 183.4,649.7 192.8,593.4 202.2,587.1 211.6,505.8 221.0,496.5 230.3,415.2 239.7,421.9 249.1,353.6 258.5,347.2 267.9,282.9 277.2,274.6 286.6,187.3 296.0,174.0" stroke="currentColor" stroke-width="2" fill="none" opacity="0.55"/>
<line x1="24.0" y1="1252.3" x2="24.0" y2="1340.9" stroke="currentColor" stroke-width="1.4"/>
<rect x="17.0" y="1277.7" width="14" height="40.6" fill="currentColor" stroke="currentColor" stroke-width="1.4"/>
<line x1="33.4" y1="1252.3" x2="33.4" y2="1331.6" stroke="currentColor" stroke-width="1.4"/>
<rect x="26.4" y="1274.0" width="14" height="31.3" fill="none" stroke="currentColor" stroke-width="1.4"/>
<line x1="42.8" y1="1153.3" x2="42.8" y2="1246.7" stroke="currentColor" stroke-width="1.4"/>
<rect x="35.8" y="1180.7" width="14" height="45.4" fill="currentColor" stroke="currentColor" stroke-width="1.4"/>
<line x1="52.1" y1="1155.9" x2="52.1" y2="1239.4" stroke="currentColor" stroke-width="1.4"/>
<rect x="45.1" y="1179.3" width="14" height="35.5" fill="none" stroke="currentColor" stroke-width="1.4"/>
<line x1="61.5" y1="1100.1" x2="61.5" y2="1187.5" stroke="currentColor" stroke-width="1.4"/>
<rect x="54.5" y="1125.1" width="14" height="39.4" fill="currentColor" stroke="currentColor" stroke-width="1.4"/>
<line x1="70.9" y1="1106.5" x2="70.9" y2="1183.1" stroke="currentColor" stroke-width="1.4"/>
<rect x="63.9" y="1127.1" width="14" height="28.6" fill="none" stroke="currentColor" stroke-width="1.4"/>
<line x1="80.3" y1="1007.5" x2="80.3" y2="1098.2" stroke="currentColor" stroke-width="1.4"/>
<rect x="73.3" y="1033.8" width="14" height="42.7" fill="currentColor" stroke="currentColor" stroke-width="1.4"/>
<line x1="89.7" y1="1005.0" x2="89.7" y2="1087.0" stroke="currentColor" stroke-width="1.4"/>
<rect x="82.7" y="1027.8" width="14" height="34.0" fill="none" stroke="currentColor" stroke-width="1.4"/>
<line x1="99.0" y1="911.1" x2="99.0" y2="1006.0" stroke="currentColor" stroke-width="1.4"/>
<rect x="92.0" y="939.1" width="14" height="46.9" fill="currentColor" stroke="currentColor" stroke-width="1.4"/>
<line x1="108.4" y1="931.5" x2="108.4" y2="1012.3" stroke="currentColor" stroke-width="1.4"/>
<rect x="101.4" y="953.8" width="14" height="32.8" fill="none" stroke="currentColor" stroke-width="1.4"/>
<line x1="117.8" y1="861.7" x2="117.8" y2="949.7" stroke="currentColor" stroke-width="1.4"/>
<rect x="110.8" y="886.9" width="14" height="40.0" fill="currentColor" stroke="currentColor" stroke-width="1.4"/>
<line x1="127.2" y1="861.8" x2="127.2" y2="940.5" stroke="currentColor" stroke-width="1.4"/>
<rect x="120.2" y="883.2" width="14" height="30.7" fill="none" stroke="currentColor" stroke-width="1.4"/>
<line x1="136.6" y1="769.1" x2="136.6" y2="860.4" stroke="currentColor" stroke-width="1.4"/>
<rect x="129.6" y="795.6" width="14" height="43.3" fill="currentColor" stroke="currentColor" stroke-width="1.4"/>
<line x1="145.9" y1="759.0" x2="145.9" y2="843.4" stroke="currentColor" stroke-width="1.4"/>
<rect x="138.9" y="782.8" width="14" height="36.4" fill="currentColor" stroke="currentColor" stroke-width="1.4"/>
<line x1="155.3" y1="698.1" x2="155.3" y2="787.6" stroke="currentColor" stroke-width="1.4"/>
<rect x="148.3" y="723.9" width="14" height="41.5" fill="currentColor" stroke="currentColor" stroke-width="1.4"/>
<line x1="164.7" y1="699.4" x2="164.7" y2="779.3" stroke="currentColor" stroke-width="1.4"/>
<rect x="157.7" y="721.4" width="14" height="31.9" fill="none" stroke="currentColor" stroke-width="1.4"/>
<line x1="174.1" y1="604.2" x2="174.1" y2="697.3" stroke="currentColor" stroke-width="1.4"/>
<rect x="167.1" y="631.5" width="14" height="45.1" fill="currentColor" stroke="currentColor" stroke-width="1.4"/>
<line x1="183.4" y1="609.4" x2="183.4" y2="692.0" stroke="currentColor" stroke-width="1.4"/>
<rect x="176.4" y="632.4" width="14" height="34.6" fill="none" stroke="currentColor" stroke-width="1.4"/>
<line x1="192.8" y1="548.5" x2="192.8" y2="636.2" stroke="currentColor" stroke-width="1.4"/>
<rect x="185.8" y="573.6" width="14" height="39.7" fill="currentColor" stroke="currentColor" stroke-width="1.4"/>
<line x1="202.2" y1="551.1" x2="202.2" y2="628.9" stroke="currentColor" stroke-width="1.4"/>
<rect x="195.2" y="572.2" width="14" height="29.8" fill="none" stroke="currentColor" stroke-width="1.4"/>
<line x1="211.6" y1="458.4" x2="211.6" y2="548.8" stroke="currentColor" stroke-width="1.4"/>
<rect x="204.6" y="484.6" width="14" height="42.4" fill="currentColor" stroke="currentColor" stroke-width="1.4"/>
<line x1="221.0" y1="457.2" x2="221.0" y2="538.6" stroke="currentColor" stroke-width="1.4"/>
<rect x="214.0" y="479.8" width="14" height="33.4" fill="none" stroke="currentColor" stroke-width="1.4"/>
<line x1="230.3" y1="364.6" x2="230.3" y2="458.6" stroke="currentColor" stroke-width="1.4"/>
<rect x="223.3" y="392.2" width="14" height="46.0" fill="currentColor" stroke="currentColor" stroke-width="1.4"/>
<line x1="239.7" y1="383.7" x2="239.7" y2="463.9" stroke="currentColor" stroke-width="1.4"/>
<rect x="232.7" y="405.8" width="14" height="32.2" fill="none" stroke="currentColor" stroke-width="1.4"/>
<line x1="249.1" y1="307.5" x2="249.1" y2="396.4" stroke="currentColor" stroke-width="1.4"/>
<rect x="242.1" y="333.1" width="14" height="40.9" fill="currentColor" stroke="currentColor" stroke-width="1.4"/>
<line x1="258.5" y1="310.1" x2="258.5" y2="389.1" stroke="currentColor" stroke-width="1.4"/>
<rect x="251.5" y="331.7" width="14" height="31.0" fill="none" stroke="currentColor" stroke-width="1.4"/>
<line x1="267.9" y1="239.1" x2="267.9" y2="325.6" stroke="currentColor" stroke-width="1.4"/>
<rect x="260.9" y="263.7" width="14" height="38.5" fill="currentColor" stroke="currentColor" stroke-width="1.4"/>
<line x1="277.2" y1="239.1" x2="277.2" y2="316.3" stroke="currentColor" stroke-width="1.4"/>
<rect x="270.2" y="260.0" width="14" height="29.2" fill="none" stroke="currentColor" stroke-width="1.4"/>
<line x1="286.6" y1="138.9" x2="286.6" y2="230.5" stroke="currentColor" stroke-width="1.4"/>
<rect x="279.6" y="165.5" width="14" height="43.6" fill="currentColor" stroke="currentColor" stroke-width="1.4"/>
<line x1="296.0" y1="132.6" x2="296.0" y2="216.4" stroke="currentColor" stroke-width="1.4"/>
<rect x="289.0" y="156.1" width="14" height="35.8" fill="currentColor" stroke="currentColor" stroke-width="1.4"/>
</g>
</svg>